<svg xmlns="http://www.w3.org/2000/svg" version="1.1" xmlns:xlink="http://www.w3.org/1999/xlink" xmlns:svgjs="http://svgjs.com/svgjs" width="512" height="512" x="0" y="0" viewBox="0 0 48 48" style="enable-background:new 0 0 512 512" xml:space="preserve" class=""><g><linearGradient id="a" gradientUnits="userSpaceOnUse" x1="8.609" x2="40.619" y1="8.609" y2="40.619"><stop stop-opacity="1" stop-color="#ffffff" offset="0"></stop><stop stop-opacity="1" stop-color="#ffffff" offset="0.252"></stop><stop stop-opacity="1" stop-color="#ffffff" offset="0.555"></stop><stop stop-opacity="1" stop-color="#ffffff" offset="0.815"></stop><stop stop-opacity="1" stop-color="#ffffff" offset="1"></stop></linearGradient><rect fill="url(#a)" height="40" rx="10" width="40" x="4" y="4" data-original="url(#a)" class=""></rect><g opacity=".9"><path d="m18 29.5a1.5 1.5 0 0 1 -1.061-.439l-4-4a1.5 1.5 0 0 1 0-2.122l4-4a1.5 1.5 0 0 1 2.122 2.122l-2.94 2.939 2.94 2.939a1.5 1.5 0 0 1 -1.061 2.561z" fill="#000000" data-original="#ffffff" class=""></path></g><g opacity=".9"><path d="m30 29.5a1.5 1.5 0 0 1 -1.061-2.561l2.94-2.939-2.94-2.939a1.5 1.5 0 0 1 2.122-2.122l4 4a1.5 1.5 0 0 1 0 2.122l-4 4a1.5 1.5 0 0 1 -1.061.439z" fill="#000000" data-original="#ffffff" class=""></path></g><g opacity=".5"><path d="m22 32.5a1.514 1.514 0 0 1 -.413-.058 1.5 1.5 0 0 1 -1.03-1.854l4-14a1.5 1.5 0 1 1 2.884.824l-4 14a1.5 1.5 0 0 1 -1.441 1.088z" fill="#000000" data-original="#ffffff" class=""></path></g></g></svg>